# xmcd
#
# Track frame offsets:
#	150
#	14993
#	27767
#	43977
#	54271
#	70369
#	86939
#	97294
#	120309
#	138543
#
# Disc length: 2013 seconds
#
# Revision: 0
# Processed by: cddbd v1.5.2PL0 Copyright (c) Steve Scherf et al.
# Submitted via: audiograbber 1.83.01
#
DISCID=9407db0a
DTITLE=Colonel Robert Morris - Highway Hero
DYEAR=2008
DGENRE=Trucking
TTITLE0=The Legend Of Phantom Jack
TTITLE1=When Charlie's Back At Home
TTITLE2=Highway Hero
TTITLE3=I Work On The Trucks
TTITLE4=A Blonde With A Dog In My Truck On A Arizona Highway
TTITLE5=Mother's Hall Of Fame
TTITLE6=A Trucker's Heaven
TTITLE7=Highway Marker 109
TTITLE8=The Trucker's Last Ride
TTITLE9=Rockabilly Town
EXTD=Colonel Robert was born with axle grease in his hair and diesel fuel runni
EXTD=ng through his veins.\nSharing endless stories of the road over gallons of
EXTD=coffee with fellow truckers, laid the foundation for the trucking songs h
EXTD=e would write and record.\nNow after thirty years of twang guitars and whi
EXTD=skey soaked bars, he has lived the songs that he writes.
EXTT0=
EXTT1=
EXTT2=
EXTT3=
EXTT4=
EXTT5=
EXTT6=
EXTT7=
EXTT8=
EXTT9=
PLAYORDER=
